<svg xmlns="http://www.w3.org/2000/svg" xmlns:xlink="http://www.w3.org/1999/xlink" viewBox="0 0 317.14 50.93"><defs><style>.cls-1{isolation:isolate;}.cls-2{fill:#3f414a;}.cls-3{fill:#fff;}.cls-4{fill:#8ed8f8;}.cls-5{fill:#20c4f4;}.cls-29,.cls-6{fill:#00b3f0;}.cls-7{fill:#a7d8bc;}.cls-8{fill:#61b58e;}.cls-10,.cls-9{fill:#00ac6c;}.cls-29,.cls-9{opacity:0.7;}.cls-11{fill:#f58e8e;}.cls-12{fill:#f15d70;}.cls-13{fill:#ee2f53;}.cls-14{fill:url(#linear-gradient);}.cls-15{fill:url(#linear-gradient-2);}.cls-16{fill:#61c8d0;}.cls-17{opacity:0.45;fill:url(#linear-gradient-3);}.cls-18{fill:#ed174c;opacity:0.6;}.cls-19,.cls-23,.cls-25,.cls-30{opacity:0.4;}.cls-19,.cls-23,.cls-24,.cls-25,.cls-26,.cls-30{mix-blend-mode:multiply;}.cls-19{fill:url(#linear-gradient-4);}.cls-20{fill:url(#linear-gradient-5);}.cls-21{fill:url(#linear-gradient-6);}.cls-22{fill:#df7c89;}.cls-23{fill:url(#linear-gradient-7);}.cls-24,.cls-26{opacity:0.35;}.cls-24{fill:url(#linear-gradient-8);}.cls-25{fill:url(#linear-gradient-9);}.cls-26{fill:url(#linear-gradient-10);}.cls-27{fill:#9a7484;}.cls-28{fill:url(#linear-gradient-11);}.cls-30{fill:url(#linear-gradient-12);}.cls-31{fill:url(#linear-gradient-13);}.cls-32{fill:#a5b092;}.cls-33{fill:#02b8a0;}.cls-34{fill:#ae7f73;}</style><linearGradient id="linear-gradient" x1="16.82" y1="20.57" x2="25.99" y2="4.7" gradientUnits="userSpaceOnUse"><stop offset="0" stop-color="#fff"/><stop offset="1" stop-color="#00b3f0"/></linearGradient><linearGradient id="linear-gradient-2" x1="26.96" y1="34.6" x2="22.43" y2="12.09" gradientUnits="userSpaceOnUse"><stop offset="0" stop-color="#fff"/><stop offset="1" stop-color="#6acff6"/></linearGradient><linearGradient id="linear-gradient-3" x1="54.47" y1="6.48" x2="14.77" y2="5.84" xlink:href="#linear-gradient"/><linearGradient id="linear-gradient-4" x1="21.57" y1="22.83" x2="27.44" y2="12.67" xlink:href="#linear-gradient"/><linearGradient id="linear-gradient-5" x1="29.97" y1="11.65" x2="42.53" y2="36.38" gradientUnits="userSpaceOnUse"><stop offset="0" stop-color="#fff"/><stop offset="1" stop-color="#ed174c"/></linearGradient><linearGradient id="linear-gradient-6" x1="10.19" y1="13.15" x2="37.41" y2="21.7" gradientUnits="userSpaceOnUse"><stop offset="0" stop-color="#fff"/><stop offset="1" stop-color="#e7777c"/></linearGradient><linearGradient id="linear-gradient-7" x1="26" y1="25.4" x2="31.88" y2="15.24" xlink:href="#linear-gradient"/><linearGradient id="linear-gradient-8" x1="29.75" y1="12.79" x2="35.95" y2="24.99" xlink:href="#linear-gradient-5"/><linearGradient id="linear-gradient-9" x1="26.01" y1="25.4" x2="31.88" y2="15.24" xlink:href="#linear-gradient"/><linearGradient id="linear-gradient-10" x1="29.76" y1="12.79" x2="35.95" y2="24.99" xlink:href="#linear-gradient-5"/><linearGradient id="linear-gradient-11" x1="29.38" y1="27.39" x2="14.36" y2="27.15" gradientUnits="userSpaceOnUse"><stop offset="0" stop-color="#fff"/><stop offset="1" stop-color="#00ac6c"/></linearGradient><linearGradient id="linear-gradient-12" x1="19.91" y1="31.05" x2="14.22" y2="30.96" xlink:href="#linear-gradient-11"/><linearGradient id="linear-gradient-13" x1="31.34" y1="11.88" x2="20.09" y2="29.26" gradientUnits="userSpaceOnUse"><stop offset="0" stop-color="#fff"/><stop offset="1" stop-color="#79c8a0"/></linearGradient></defs><title>Asset 1_@1x</title><g class="cls-1"><g id="Layer_2" data-name="Layer 2"><g id="Layer_1-2" data-name="Layer 1"><path class="cls-2" d="M53.13,38.47h4.43c1.6,0,2.94.77,2.94,2.52a2.31,2.31,0,0,1-1.88,2.46v0c1.26.16,1.63,1,1.69,2.18a5.39,5.39,0,0,0,.45,2.48h-1a3.67,3.67,0,0,1-.25-1.5c-.08-1.36-.19-2.86-1.94-2.79h-3.5v4.29h-.92Zm.92,4.59h3.44a1.92,1.92,0,0,0,2.09-1.88,1.83,1.83,0,0,0-2.09-1.93H54.05Z"/><path class="cls-2" d="M62.79,44.88c0,1.24.66,2.75,2.3,2.75a2.13,2.13,0,0,0,2.2-1.79h.85a2.85,2.85,0,0,1-3,2.51c-2.22,0-3.15-1.71-3.15-3.7s.93-3.7,3.15-3.7,3.15,2,3.08,3.93Zm4.52-.72a2.34,2.34,0,0,0-2.22-2.49,2.48,2.48,0,0,0-2.3,2.49Z"/><path class="cls-2" d="M73.79,43.2c0-1.06-.85-1.53-1.83-1.53-.76,0-1.65.29-1.65,1.2s.86,1,1.45,1.18l1.13.26a2.06,2.06,0,0,1,2,1.94c0,1.51-1.51,2.1-2.81,2.1a2.53,2.53,0,0,1-2.87-2.47h.85a1.85,1.85,0,0,0,2.06,1.75c.8,0,1.91-.35,1.91-1.33,0-.81-.76-1.08-1.53-1.27l-1.1-.25c-1.11-.3-2-.67-2-1.87,0-1.42,1.4-2,2.63-2a2.29,2.29,0,0,1,2.56,2.25Z"/><path class="cls-2" d="M82.06,48.14h-.78V46.88h0a2.6,2.6,0,0,1-2.41,1.47c-1.76,0-2.45-1-2.45-2.66V41.15h.85V45.7c0,1.26.52,1.93,1.87,1.93s2.1-1.38,2.1-2.81V41.15h.85Z"/><path class="cls-2" d="M84,38.47h.86v9.67H84Z"/><path class="cls-2" d="M88.1,41.15h1.43v.72H88.1v4.71c0,.56.08.89.69.93.25,0,.49,0,.74,0v.73l-.76,0c-1.14,0-1.53-.37-1.52-1.57V41.87H86v-.72h1.22v-2.1h.85Z"/><path class="cls-2" d="M95.23,43.2a1.61,1.61,0,0,0-1.83-1.53c-.76,0-1.65.29-1.65,1.2s.86,1,1.45,1.18l1.13.26a2.06,2.06,0,0,1,2,1.94c0,1.51-1.51,2.1-2.81,2.1a2.53,2.53,0,0,1-2.87-2.47h.85a1.85,1.85,0,0,0,2.06,1.75c.8,0,1.91-.35,1.91-1.33,0-.81-.76-1.08-1.53-1.27l-1.1-.25c-1.11-.3-2-.67-2-1.87,0-1.42,1.4-2,2.63-2a2.29,2.29,0,0,1,2.56,2.25Z"/><path class="cls-2" d="M103.25,41.15h1.42v.72h-1.42v4.71c0,.56.08.89.69.93.24,0,.48,0,.73,0v.73l-.76,0c-1.14,0-1.53-.37-1.52-1.57V41.87h-1.22v-.72h1.22v-2.1h.86Z"/><path class="cls-2" d="M106.17,38.47H107v3.89h0A2.37,2.37,0,0,1,109.29,41c2,0,2.56,1,2.56,2.69v4.5H111V43.78c0-1.21-.39-2.11-1.77-2.11a2.21,2.21,0,0,0-2.2,2.39v4.08h-.85Z"/><path class="cls-2" d="M113.74,41.15h.79v1.64h0a2.59,2.59,0,0,1,2.65-1.73v.85a2.42,2.42,0,0,0-2.61,2.51v3.72h-.85Z"/><path class="cls-2" d="M124.31,44.65c0,2-1.17,3.7-3.31,3.7s-3.3-1.7-3.3-3.7S118.86,41,121,41,124.31,42.64,124.31,44.65Zm-5.76,0c0,1.49.81,3,2.45,3s2.45-1.49,2.45-3-.81-3-2.45-3S118.55,43.16,118.55,44.65Z"/><path class="cls-2" d="M131.53,48.14h-.79V46.88h0a2.58,2.58,0,0,1-2.41,1.47c-1.76,0-2.45-1-2.45-2.66V41.15h.85V45.7c0,1.26.52,1.93,1.87,1.93s2.1-1.38,2.1-2.81V41.15h.86Z"/><path class="cls-2" d="M139.33,47.57c0,2.09-.81,3.36-3.1,3.36-1.4,0-2.78-.62-2.9-2.11h.85a1.85,1.85,0,0,0,2,1.4c1.57,0,2.24-.94,2.24-2.65v-.94h0a2.43,2.43,0,0,1-2.22,1.43c-2.24,0-3.16-1.6-3.16-3.59S134.21,41,136.23,41a2.47,2.47,0,0,1,2.22,1.41h0V41.15h.86Zm-.86-3c0-1.37-.63-2.9-2.24-2.9s-2.31,1.45-2.31,2.9.73,2.77,2.31,2.77S138.47,46,138.47,44.57Z"/><path class="cls-2" d="M141.22,38.47h.86v3.89h0A2.37,2.37,0,0,1,144.34,41c2,0,2.56,1,2.56,2.69v4.5h-.85V43.78c0-1.21-.4-2.11-1.78-2.11a2.2,2.2,0,0,0-2.19,2.39v4.08h-.86Z"/><path class="cls-2" d="M153,38.47h4.43c1.6,0,2.94.77,2.94,2.52a2.32,2.32,0,0,1-1.89,2.46v0c1.26.16,1.63,1,1.7,2.18a5.52,5.52,0,0,0,.44,2.48h-1a3.86,3.86,0,0,1-.26-1.5c-.08-1.36-.19-2.86-1.94-2.79h-3.49v4.29H153Zm.92,4.59h3.44a1.92,1.92,0,0,0,2.09-1.88,1.83,1.83,0,0,0-2.09-1.93h-3.44Z"/><path class="cls-2" d="M162.66,44.88c0,1.24.67,2.75,2.31,2.75a2.13,2.13,0,0,0,2.19-1.79H168a2.84,2.84,0,0,1-3,2.51c-2.23,0-3.16-1.71-3.16-3.7S162.74,41,165,41s3.14,2,3.07,3.93Zm4.53-.72A2.34,2.34,0,0,0,165,41.67a2.49,2.49,0,0,0-2.31,2.49Z"/><path class="cls-2" d="M169.49,38.47h.85v9.67h-.85Z"/><path class="cls-2" d="M172.18,43.29c.08-1.64,1.24-2.34,2.84-2.34,1.23,0,2.57.38,2.57,2.25v3.71a.46.46,0,0,0,.5.52.72.72,0,0,0,.27-.06v.72a2.34,2.34,0,0,1-.55,0c-.87,0-1-.48-1-1.22h0a2.68,2.68,0,0,1-2.55,1.43c-1.29,0-2.34-.64-2.34-2.05,0-2,1.91-2,3.75-2.25.7-.08,1.1-.18,1.1-.95,0-1.15-.83-1.43-1.83-1.43s-1.85.48-1.87,1.62Zm4.56,1h0c-.11.2-.49.27-.72.31-1.45.26-3.25.25-3.25,1.62a1.46,1.46,0,0,0,1.56,1.38,2.25,2.25,0,0,0,2.44-2.2Z"/><path class="cls-2" d="M180.93,41.15h1.43v.72h-1.43v4.71c0,.56.08.89.69.93.25,0,.49,0,.74,0v.73l-.76,0c-1.14,0-1.53-.37-1.52-1.57V41.87h-1.22v-.72h1.22v-2.1h.85Z"/><path class="cls-2" d="M183.89,38.47h.85v1.37h-.85Zm0,2.68h.85v7h-.85Z"/><path class="cls-2" d="M192.92,44.65c0,2-1.16,3.7-3.3,3.7s-3.31-1.7-3.31-3.7,1.17-3.7,3.31-3.7S192.92,42.64,192.92,44.65Zm-5.76,0c0,1.49.82,3,2.46,3s2.45-1.49,2.45-3-.81-3-2.45-3S187.16,43.16,187.16,44.65Z"/><path class="cls-2" d="M194.46,41.15h.86v1.21h0A2.39,2.39,0,0,1,197.58,41c2,0,2.56,1,2.56,2.69v4.5h-.85V43.78c0-1.21-.4-2.11-1.78-2.11a2.2,2.2,0,0,0-2.19,2.39v4.08h-.86Z"/><path class="cls-2" d="M206.22,43.2c0-1.06-.85-1.53-1.83-1.53-.76,0-1.65.29-1.65,1.2s.87,1,1.45,1.18l1.14.26a2.05,2.05,0,0,1,2,1.94c0,1.51-1.5,2.1-2.81,2.1a2.54,2.54,0,0,1-2.87-2.47h.85a1.85,1.85,0,0,0,2.06,1.75c.8,0,1.92-.35,1.92-1.33,0-.81-.76-1.08-1.54-1.27l-1.09-.25c-1.11-.3-2-.67-2-1.87,0-1.42,1.39-2,2.62-2a2.29,2.29,0,0,1,2.56,2.25Z"/><path class="cls-2" d="M208.82,38.47h.85v3.89h0A2.37,2.37,0,0,1,211.94,41c2,0,2.56,1,2.56,2.69v4.5h-.86V43.78c0-1.21-.39-2.11-1.77-2.11a2.21,2.21,0,0,0-2.2,2.39v4.08h-.85Z"/><path class="cls-2" d="M216.4,38.47h.86v1.37h-.86Zm0,2.68h.86v7h-.86Z"/><path class="cls-2" d="M219.18,41.15H220v1.33h0a2.62,2.62,0,0,1,2.5-1.53c2.12,0,3.14,1.72,3.14,3.7s-1,3.7-3.14,3.7a2.49,2.49,0,0,1-2.43-1.54h0v3.92h-.85Zm3.31.52c-1.89,0-2.46,1.39-2.46,3s.64,3,2.46,3c1.62,0,2.29-1.53,2.29-3S224.11,41.67,222.49,41.67Z"/><path class="cls-2" d="M231.43,43.2a1.61,1.61,0,0,0-1.83-1.53c-.76,0-1.66.29-1.66,1.2s.87,1,1.45,1.18l1.14.26a2,2,0,0,1,2,1.94c0,1.51-1.5,2.1-2.8,2.1a2.53,2.53,0,0,1-2.87-2.47h.85a1.85,1.85,0,0,0,2.06,1.75c.8,0,1.91-.35,1.91-1.33,0-.81-.76-1.08-1.53-1.27l-1.1-.25c-1.11-.3-1.95-.67-1.95-1.87,0-1.42,1.4-2,2.63-2a2.29,2.29,0,0,1,2.56,2.25Z"/><path class="cls-2" d="M67.42,16.86a3,3,0,0,0-.94-2.11A3.12,3.12,0,0,0,64.33,14c-3.27,0-3.75,2.84-3.75,5.55s.48,5.5,3.75,5.5a3.44,3.44,0,0,0,3.31-3.27h8.12a10.35,10.35,0,0,1-3.87,7,12.43,12.43,0,0,1-7.74,2.45c-6.7,0-12.08-4.64-12.08-11.69S57.45,7.83,64.15,7.83c5.85,0,10.84,2.88,11.36,9Z"/><path class="cls-2" d="M89.74,31.26c-8.39,0-12.17-5.55-12.17-11.74S81.35,7.83,89.74,7.83s12.17,5.5,12.17,11.69S98.12,31.26,89.74,31.26Zm0-17.24c-3.23,0-3.66,3.14-3.66,5.5s.43,5.55,3.66,5.55,3.65-3.18,3.65-5.55S93,14,89.74,14Z"/><path class="cls-2" d="M103.58,8.39h8.17V12h.09c1.38-2.66,3.18-4.12,6.28-4.12a9.84,9.84,0,0,1,2.49.34v7.52a8.64,8.64,0,0,0-3.35-.55c-3.36,0-5.16,2-5.16,6.75V30.7h-8.52Z"/><path class="cls-2" d="M129.77,21.46c.22,2.53,1.68,4.34,4.34,4.34a4.28,4.28,0,0,0,3.57-1.59h8c-1.72,4.81-6.41,7.05-11.48,7.05-7.14,0-12.52-4.21-12.52-11.65A11.45,11.45,0,0,1,133.43,7.83c8.85,0,12.68,4.94,12.68,13.63ZM137.94,17a3.66,3.66,0,0,0-3.74-3.74A4,4,0,0,0,129.81,17Z"/><path class="cls-2" d="M162.45,15c-.13-3.36-2.71-4.86-5.8-4.86-2.41,0-5.25.94-5.25,3.83,0,2.4,2.75,3.26,4.6,3.74l3.61.81c3.1.48,6.32,2.28,6.32,6.15,0,4.82-4.77,6.67-8.9,6.67-5.16,0-8.68-2.41-9.11-7.83h2.71c.21,3.66,2.92,5.55,6.53,5.55,2.54,0,6.06-1.12,6.06-4.22,0-2.58-2.4-3.44-4.86-4L154.88,20c-3.52-.95-6.19-2.15-6.19-5.94,0-4.51,4.43-6.23,8.34-6.23,4.43,0,8,2.32,8.13,7.14Z"/><path class="cls-2" d="M173.37,8.51h4.52v2.28h-4.52v15c0,1.76.26,2.79,2.19,2.92a20.22,20.22,0,0,0,2.33-.13v2.32c-.82,0-1.59.09-2.41.09-3.61,0-4.86-1.2-4.82-5V10.79h-3.87V8.51h3.87V1.85h2.71Z"/><path class="cls-2" d="M181,8.51h2.49v5.21h.09A8.19,8.19,0,0,1,192,8.21v2.71a7.65,7.65,0,0,0-8.26,8V30.7H181Z"/><path class="cls-2" d="M194.61,20.34c0,3.95,2.11,8.73,7.31,8.73,4,0,6.11-2.32,7-5.68h2.71c-1.16,5-4.09,8-9.68,8-7,0-10-5.42-10-11.74,0-5.85,3-11.74,10-11.74s10,6.23,9.76,12.47ZM209,18.06c-.13-4.08-2.67-7.91-7.06-7.91S195,14,194.61,18.06Z"/><path class="cls-2" d="M214.52,8.51h2.71v3.83h.09a7.51,7.51,0,0,1,7.09-4.47c6.24,0,8.13,3.27,8.13,8.56V30.7h-2.71V16.86c0-3.83-1.25-6.71-5.63-6.71s-6.88,3.27-7,7.61V30.7h-2.71Z"/><path class="cls-2" d="M255.63,28.9c0,6.62-2.58,10.66-9.85,10.66-4.43,0-8.81-2-9.2-6.71h2.71c.6,3.27,3.48,4.43,6.49,4.43,5,0,7.14-3,7.14-8.38v-3h-.09a7.67,7.67,0,0,1-7.05,4.55c-7.09,0-10-5.07-10-11.39,0-6.11,3.62-11.18,10-11.18a7.79,7.79,0,0,1,7.05,4.47h.09V8.51h2.71Zm-2.71-9.55c0-4.34-2-9.2-7.14-9.2s-7.31,4.6-7.31,9.2,2.32,8.81,7.31,8.81C250.47,28.16,252.92,23.86,252.92,19.35Z"/><path class="cls-2" d="M264.32,8.51h4.51v2.28h-4.51v15c0,1.76.25,2.79,2.19,2.92a20,20,0,0,0,2.32-.13v2.32c-.82,0-1.59.09-2.41.09-3.61,0-4.86-1.2-4.81-5V10.79h-3.87V8.51h3.87V1.85h2.71Z"/><path class="cls-2" d="M271.93,0h2.71V12.34h.08a7.52,7.52,0,0,1,7.1-4.47c6.23,0,8.12,3.27,8.12,8.56V30.7h-2.71V16.86c0-3.83-1.24-6.71-5.63-6.71s-6.88,3.27-7,7.61V30.7h-2.71Z"/><path class="cls-2" d="M307.57,15c-.13-3.36-2.71-4.86-5.8-4.86-2.41,0-5.25.94-5.25,3.83,0,2.4,2.75,3.26,4.6,3.74l3.61.81c3.1.48,6.33,2.28,6.33,6.15,0,4.82-4.78,6.67-8.91,6.67-5.16,0-8.68-2.41-9.11-7.83h2.71c.21,3.66,2.92,5.55,6.53,5.55,2.54,0,6.07-1.12,6.07-4.22,0-2.58-2.41-3.44-4.86-4L300,20c-3.52-.95-6.19-2.15-6.19-5.94,0-4.51,4.43-6.23,8.34-6.23,4.43,0,8,2.32,8.13,7.14Z"/><polygon class="cls-3" points="20.08 19.85 22.89 14.91 28.75 14.91 31.61 19.89 28.71 24.85 22.94 24.85 20.08 19.85"/><polygon class="cls-4" points="17.25 14.91 23 4.95 11.53 4.95 17.25 14.91"/><polygon class="cls-5" points="17.25 14.91 5.77 14.93 11.5 24.87 17.25 14.91"/><polygon class="cls-6" points="5.77 14.93 17.25 14.91 11.53 4.95 0 4.95 5.77 14.93"/><polygon class="cls-7" points="25.8 29.86 14.38 29.86 20.08 39.72 25.8 29.86"/><polygon class="cls-8" points="31.54 39.84 37.34 29.85 25.8 29.86 31.54 39.84"/><polygon class="cls-9" points="31.41 26.02 31.43 26.02 31.43 26.02 31.41 26.02"/><polygon class="cls-10" points="31.54 39.84 25.8 29.86 20.08 39.72 25.84 49.71 31.54 39.84 31.54 39.84"/><polygon class="cls-11" points="34.52 14.91 40.23 24.85 45.95 14.91 34.52 14.91"/><polygon class="cls-12" points="40.3 4.96 28.55 4.96 34.52 14.91 40.3 4.96"/><polygon class="cls-13" points="45.95 14.91 51.69 4.96 40.3 4.96 34.52 14.91 45.95 14.91"/><polygon class="cls-14" points="20.08 19.85 22.89 14.91 17.25 14.91 20.08 19.85"/><polygon class="cls-15" points="28.75 14.91 23 4.95 17.25 14.91 28.75 14.91"/><polygon class="cls-16" points="20.08 19.85 17.25 14.91 11.5 24.87 17.22 24.87 20.08 19.85"/><polygon class="cls-17" points="31.25 6.1 31.24 6.1 31.24 6.11 31.25 6.1"/><polygon class="cls-18" points="31.25 6.1 31.24 6.1 31.24 6.11 31.25 6.1"/><polygon class="cls-19" points="31.25 6.1 31.24 6.1 31.24 6.11 31.25 6.1"/><polygon class="cls-20" points="28.75 14.91 31.61 19.89 34.52 14.91 28.75 14.91"/><polygon class="cls-21" points="28.71 24.85 40.23 24.85 34.52 14.91 28.71 24.85"/><polygon class="cls-22" points="28.55 4.95 25.78 9.8 28.75 14.91 34.52 14.91 28.55 4.95"/><polygon class="cls-23" points="31.41 16.05 31.41 16.04 31.4 16.04 31.4 16.05 31.41 16.05"/><polygon class="cls-24" points="31.41 16.05 31.41 16.04 31.4 16.04 31.4 16.05 31.41 16.05"/><polygon class="cls-18" points="31.41 16.04 31.41 16.04 31.41 16.05 31.41 16.04"/><polygon class="cls-25" points="31.41 16.04 31.41 16.04 31.41 16.05 31.41 16.04"/><polygon class="cls-26" points="31.41 16.04 31.41 16.04 31.41 16.05 31.41 16.04"/><polygon class="cls-27" points="25.78 9.8 28.55 4.96 28.55 4.95 23 4.95 25.78 9.8"/><polygon class="cls-28" points="22.94 24.85 25.8 29.86 25.81 29.86 28.71 24.85 22.94 24.85"/><polygon class="cls-29" points="17.06 31 17.07 31 17.07 31 17.06 31"/><polygon class="cls-30" points="17.06 31 17.07 31 17.07 31 17.06 31"/><polygon class="cls-31" points="20.08 19.85 14.38 29.86 25.8 29.86 20.08 19.85"/><polygon class="cls-32" points="28.71 24.85 25.8 29.86 37.34 29.85 34.46 24.85 28.71 24.85"/><polygon class="cls-33" points="17.22 24.87 11.5 24.87 14.38 29.86 17.22 24.87"/><polygon class="cls-34" points="34.46 24.85 37.34 29.85 40.23 24.85 34.46 24.85"/><path class="cls-10" d="M33.19,46.06a1.85,1.85,0,1,1,0,3.7,1.85,1.85,0,1,1,0-3.7Zm0,3.43a1.58,1.58,0,1,0-1.53-1.59A1.53,1.53,0,0,0,33.19,49.49Zm-.73-2.67h.84c.52,0,.76.21.76.62a.56.56,0,0,1-.57.59l.62,1h-.36l-.59-.93H32.8V49h-.34Zm.34,1h.35c.3,0,.57,0,.57-.36s-.25-.33-.47-.33H32.8Z"/><path class="cls-2" d="M314.73,8a2.41,2.41,0,1,1-2.43,2.39A2.39,2.39,0,0,1,314.73,8Zm0,4.46a2,2,0,0,0,2-2.07,2,2,0,1,0-4,0A2,2,0,0,0,314.73,12.41Zm-.94-3.47h1.09c.67,0,1,.27,1,.81a.71.71,0,0,1-.74.76l.81,1.25h-.47l-.77-1.21h-.46v1.21h-.44Zm.44,1.25h.46c.38,0,.74,0,.74-.46s-.33-.43-.62-.43h-.58Z"/></g></g></g></svg>