<svg xmlns="http://www.w3.org/2000/svg" xmlns:xlink="http://www.w3.org/1999/xlink" viewBox="0 0 133.33 64.65"><defs><style>.cls-1{isolation:isolate;}.cls-2{fill:#40424b;}.cls-3{fill:none;}.cls-4{fill:#fff;}.cls-5{fill:#8dd6f7;}.cls-6{fill:#22c4f4;}.cls-30,.cls-7{fill:#25b0e6;}.cls-8{fill:#a5d8bc;}.cls-9{fill:#61b48d;}.cls-10,.cls-11{fill:#00ab6c;}.cls-10,.cls-30{opacity:0.7;}.cls-12{fill:#f58e8e;}.cls-13{fill:#f15f71;}.cls-14{fill:#ed3254;}.cls-15{fill:url(#linear-gradient);}.cls-16{fill:url(#linear-gradient-2);}.cls-17{fill:#64c8cf;}.cls-18{opacity:0.45;fill:url(#linear-gradient-3);}.cls-19{fill:#ea1f4e;opacity:0.6;}.cls-20,.cls-24,.cls-26,.cls-31{opacity:0.4;}.cls-20,.cls-24,.cls-25,.cls-26,.cls-27,.cls-31{mix-blend-mode:multiply;}.cls-20{fill:url(#linear-gradient-4);}.cls-21{fill:url(#linear-gradient-5);}.cls-22{fill:url(#linear-gradient-6);}.cls-23{fill:#df7b88;}.cls-24{fill:url(#linear-gradient-7);}.cls-25,.cls-27{opacity:0.35;}.cls-25{fill:url(#linear-gradient-8);}.cls-26{fill:url(#linear-gradient-9);}.cls-27{fill:url(#linear-gradient-10);}.cls-28{fill:#997584;}.cls-29{fill:url(#linear-gradient-11);}.cls-31{fill:url(#linear-gradient-12);}.cls-32{fill:url(#linear-gradient-13);}.cls-33{fill:#a4b092;}.cls-34{fill:#09b79f;}.cls-35{fill:#ad8074;}</style><linearGradient id="linear-gradient" x1="79.31" y1="9.27" x2="84.75" y2="-0.15" gradientUnits="userSpaceOnUse"><stop offset="0" stop-color="#fff"/><stop offset="1" stop-color="#25b0e6"/></linearGradient><linearGradient id="linear-gradient-2" x1="85.32" y1="17.59" x2="82.64" y2="4.23" gradientUnits="userSpaceOnUse"><stop offset="0" stop-color="#fff"/><stop offset="1" stop-color="#6ccdf4"/></linearGradient><linearGradient id="linear-gradient-3" x1="101.64" y1="0.9" x2="78.1" y2="0.53" xlink:href="#linear-gradient"/><linearGradient id="linear-gradient-4" x1="82.14" y1="10.58" x2="85.62" y2="4.57" xlink:href="#linear-gradient"/><linearGradient id="linear-gradient-5" x1="87.11" y1="3.97" x2="94.56" y2="18.64" gradientUnits="userSpaceOnUse"><stop offset="0" stop-color="#fff"/><stop offset="1" stop-color="#ea1f4e"/></linearGradient><linearGradient id="linear-gradient-6" x1="75.38" y1="4.86" x2="91.53" y2="9.94" gradientUnits="userSpaceOnUse"><stop offset="0" stop-color="#fff"/><stop offset="1" stop-color="#e6797d"/></linearGradient><linearGradient id="linear-gradient-7" x1="84.81" y1="12.04" x2="88.24" y2="6.11" xlink:href="#linear-gradient"/><linearGradient id="linear-gradient-8" x1="86.99" y1="4.65" x2="90.65" y2="11.87" xlink:href="#linear-gradient-5"/><linearGradient id="linear-gradient-9" x1="84.77" y1="12.11" x2="88.24" y2="6.1" xlink:href="#linear-gradient"/><linearGradient id="linear-gradient-10" x1="86.98" y1="4.64" x2="90.67" y2="11.9" xlink:href="#linear-gradient-5"/><linearGradient id="linear-gradient-11" x1="86.76" y1="13.31" x2="77.85" y2="13.17" gradientUnits="userSpaceOnUse"><stop offset="0" stop-color="#fff"/><stop offset="1" stop-color="#00ab6c"/></linearGradient><linearGradient id="linear-gradient-12" x1="80.98" y1="15.48" x2="77.93" y2="15.43" xlink:href="#linear-gradient-11"/><linearGradient id="linear-gradient-13" x1="87.92" y1="4.11" x2="81.25" y2="14.42" gradientUnits="userSpaceOnUse"><stop offset="0" stop-color="#fff"/><stop offset="1" stop-color="#7ac8a0"/></linearGradient></defs><title>Black SDI Logo</title><g class="cls-1"><g id="Layer_2" data-name="Layer 2"><g id="Layer_1-2" data-name="Layer 1"><path class="cls-2" d="M21.39,39.88a3.26,3.26,0,0,0-1.5-2.53,4.49,4.49,0,0,0-2.86-1c-1.82,0-3.9.39-3.9,2.6,0,1,.78,1.43,1.5,1.76,2.14.91,7,1.17,11.31,2.6S34,47.23,34,52.75c0,9.36-9,11.9-17.16,11.9C8.91,64.65.2,61.46,0,52.75H12.29a4.09,4.09,0,0,0,1.56,3,5.26,5.26,0,0,0,3.44,1c1.69,0,4.36-.65,4.36-2.6s-1.11-2.54-7.09-3.58C4.75,48.85.78,45.73.78,40c0-8.52,9.17-10.73,15.93-10.73,7.28,0,16,2,16.38,10.66Z"/><path class="cls-2" d="M78.32,30.07H91.19V63.8H78.32Z"/><path class="cls-2" d="M59.8,17.39V33.77h-.13a11,11,0,0,0-9.23-4.55c-11.31,0-14.37,9.62-14.37,17.55,0,8.45,4.62,17.88,14.18,17.88,6.3,0,8.25-2.41,9.88-4.55h.12v3.7H72.67V17.39ZM54.62,54.6C50,54.6,49,50.69,49,47.13s1-7.53,5.65-7.53,5.66,3.91,5.66,7.53S59.24,54.6,54.62,54.6Z"/><path class="cls-2" d="M95.63,32a1.49,1.49,0,1,1-1.49-1.49A1.47,1.47,0,0,1,95.63,32Zm-2.74,0a1.26,1.26,0,1,0,2.51,0,1.26,1.26,0,1,0-2.51,0Zm.92.86H93.6V31.14h.66c.39,0,.56.17.56.47a.46.46,0,0,1-.43.48l.51.77h-.25l-.48-.77h-.36Zm.28-.95c.26,0,.52,0,.52-.3s-.2-.29-.41-.29h-.39v.59Z"/><polygon class="cls-3" points="81.15 6.59 81.16 6.59 81.16 6.59 81.15 6.59"/><polygon class="cls-3" points="86.24 15.47 86.24 15.46 86.24 15.46 86.24 15.47"/><polygon class="cls-4" points="86.37 11.81 88.08 8.86 86.39 5.91 82.91 5.91 81.24 8.84 82.94 11.81 86.37 11.81"/><polygon class="cls-3" points="91.41 6.58 91.39 6.58 91.4 6.6 91.41 6.58"/><polygon class="cls-3" points="87.98 12.5 87.98 12.5 87.96 12.5 87.98 12.5"/><polygon class="cls-5" points="79.56 5.91 82.97 0 76.17 0 79.56 5.91"/><polygon class="cls-6" points="79.56 5.91 72.76 5.92 76.16 11.82 79.56 5.91"/><polygon class="cls-7" points="72.76 5.92 79.56 5.91 76.17 0 69.33 0 72.76 5.92"/><polygon class="cls-8" points="84.64 14.78 77.86 14.78 81.24 20.63 84.64 14.78"/><polygon class="cls-9" points="88.04 20.7 91.48 14.77 84.64 14.78 88.04 20.7"/><polygon class="cls-10" points="87.96 12.5 87.98 12.5 87.98 12.5 87.96 12.5"/><polygon class="cls-11" points="88.04 20.7 84.64 14.78 81.24 20.63 84.66 26.55 88.04 20.7 88.04 20.7"/><polygon class="cls-12" points="89.81 5.91 93.2 11.81 96.59 5.91 89.81 5.91"/><polygon class="cls-13" points="93.24 0.01 86.27 0.01 89.81 5.91 93.24 0.01"/><polygon class="cls-14" points="96.59 5.91 100 0.01 93.24 0.01 89.81 5.91 96.59 5.91"/><polygon class="cls-15" points="81.24 8.84 82.91 5.91 79.56 5.91 81.24 8.84"/><polygon class="cls-16" points="86.39 5.91 82.97 0 79.56 5.91 86.39 5.91"/><polygon class="cls-17" points="81.24 8.84 79.56 5.91 76.16 11.82 79.55 11.82 81.24 8.84"/><polygon class="cls-18" points="87.87 0.68 87.86 0.68 87.87 0.69 87.87 0.68"/><polygon class="cls-19" points="87.87 0.68 87.86 0.68 87.87 0.69 87.87 0.68"/><polygon class="cls-20" points="87.87 0.68 87.86 0.68 87.87 0.69 87.87 0.68"/><polygon class="cls-21" points="86.39 5.91 88.08 8.86 89.81 5.91 86.39 5.91"/><polygon class="cls-22" points="86.37 11.81 93.2 11.81 89.81 5.91 86.37 11.81"/><polygon class="cls-23" points="86.27 0 84.63 2.88 86.39 5.91 89.81 5.91 86.27 0"/><polygon class="cls-24" points="87.97 6.58 87.97 6.58 87.96 6.58 87.96 6.58 87.97 6.58"/><polygon class="cls-25" points="87.97 6.58 87.97 6.58 87.96 6.58 87.96 6.58 87.97 6.58"/><polygon class="cls-19" points="87.97 6.58 87.97 6.58 87.97 6.58 87.97 6.58"/><polygon class="cls-26" points="87.97 6.58 87.97 6.58 87.97 6.58 87.97 6.58"/><polygon class="cls-27" points="87.97 6.58 87.97 6.58 87.97 6.58 87.97 6.58"/><polygon class="cls-28" points="84.63 2.88 86.27 0.01 86.27 0 82.97 0 84.63 2.88"/><polygon class="cls-29" points="82.94 11.81 84.64 14.78 84.64 14.78 86.37 11.81 82.94 11.81"/><polygon class="cls-30" points="79.45 15.46 79.45 15.46 79.45 15.46 79.45 15.46"/><polygon class="cls-31" points="79.45 15.46 79.45 15.46 79.45 15.46 79.45 15.46"/><polygon class="cls-32" points="81.24 8.84 77.86 14.78 84.64 14.78 81.24 8.84"/><polygon class="cls-33" points="86.37 11.81 84.64 14.78 91.48 14.77 89.78 11.81 86.37 11.81"/><polygon class="cls-34" points="79.55 11.82 76.16 11.82 77.86 14.78 79.55 11.82"/><polygon class="cls-35" points="89.78 11.81 91.48 14.77 93.2 11.81 89.78 11.81"/><rect class="cls-2" x="96.85" y="41.79" width="36.49" height="21.78" rx="4" ry="4"/><path class="cls-2" d="M101.09,59.36a5.87,5.87,0,0,1,2.07-4.4,26.6,26.6,0,0,1,3.45-2.31c1-.66,1.73-1.31,1.73-2.2a1.57,1.57,0,0,0-1.71-1.65c-1.7,0-2.18,1.23-2.2,2.67h-3a4.88,4.88,0,0,1,5.19-5.5c2.62,0,5,1.37,5,4.2,0,2.54-1.82,3.49-3.75,4.68a11.61,11.61,0,0,0-2.39,1.78h6.28v2.73Z"/><path class="cls-2" d="M113.67,55.84h3.52v3.52h-3.52Z"/><path class="cls-2" d="M118.56,52.75c0-3.53,1.42-6.78,5.18-6.78s5.38,3.25,5.38,6.78-1.51,6.79-5.38,6.79S118.56,56.27,118.56,52.75Zm7.45,0c0-1.73-.05-4.16-2.18-4.16s-2.16,2.43-2.16,4.16.11,4.17,2.16,4.17S126,54.47,126,52.75Z"/><path class="cls-4" d="M101.09,59.36a5.87,5.87,0,0,1,2.07-4.4,26.6,26.6,0,0,1,3.45-2.31c1-.66,1.73-1.31,1.73-2.2a1.57,1.57,0,0,0-1.71-1.65c-1.7,0-2.18,1.23-2.2,2.67h-3a4.88,4.88,0,0,1,5.19-5.5c2.62,0,5,1.37,5,4.2,0,2.54-1.82,3.49-3.75,4.68a11.61,11.61,0,0,0-2.39,1.78h6.28v2.73Z"/><path class="cls-4" d="M113.67,55.84h3.52v3.52h-3.52Z"/><path class="cls-4" d="M118.56,52.75c0-3.53,1.42-6.78,5.18-6.78s5.38,3.25,5.38,6.78-1.51,6.79-5.38,6.79S118.56,56.27,118.56,52.75Zm7.45,0c0-1.73-.05-4.16-2.18-4.16s-2.16,2.43-2.16,4.16.11,4.17,2.16,4.17S126,54.47,126,52.75Z"/></g></g></g></svg>