<?xml version="1.0" encoding="UTF-8"?>
<svg width="22px" height="22px" viewBox="0 0 22 22" version="1.1" xmlns="http://www.w3.org/2000/svg" xmlns:xlink="http://www.w3.org/1999/xlink">
    <!-- Generator: Sketch 49.3 (51167) - http://www.bohemiancoding.com/sketch -->
    <title>Combined Shape</title>
    <desc>Created with Sketch.</desc>
    <defs></defs>
    <g id="Symbols" stroke="none" stroke-width="1" fill="none" fill-rule="evenodd" opacity="0.200000003">
        <g id="Button-/-UPLOAD" transform="translate(-24.000000, -15.000000)" fill="#000000">
            <path d="M37.9166667,25.8333333 L35,22.9166667 L32.0833333,25.8333333 L33.8333333,25.8333333 L33.8333333,28.1666667 L36.1666667,28.1666667 L36.1666667,25.8333333 L37.9166667,25.8333333 L37.9166667,25.8333333 Z M35,37 C28.9248678,37 24,32.0751322 24,26 C24,19.9248678 28.9248678,15 35,15 C41.0751322,15 46,19.9248678 46,26 C46,32.0751322 41.0751322,37 35,37 Z M35,21 C33.3141667,21 31.85,21.9566667 31.1208333,23.3566667 C29.365,23.5433333 28,25.0308333 28,26.8333333 C28,28.7641667 29.5691667,30.3333333 31.5,30.3333333 L39.0833333,30.3333333 C40.6933333,30.3333333 42,29.0266667 42,27.4166667 C42,25.8766667 40.8041667,24.6283333 39.2875,24.5233333 C38.8908333,22.5108333 37.1233333,21 35,21 Z" id="Combined-Shape"></path>
        </g>
    </g>
</svg>